<svg width="61" height="61" viewBox="0 0 61 61" fill="none" xmlns="http://www.w3.org/2000/svg">
<path d="M53 13L48 30.5H18.9418M50.5 40.5H20.5L15.5 8H8M34.25 8V23M34.25 8L29.25 13M34.25 8L39.25 13M23 50.5C23 51.8807 21.8807 53 20.5 53C19.1193 53 18 51.8807 18 50.5C18 49.1193 19.1193 48 20.5 48C21.8807 48 23 49.1193 23 50.5ZM50.5 50.5C50.5 51.8807 49.3807 53 48 53C46.6193 53 45.5 51.8807 45.5 50.5C45.5 49.1193 46.6193 48 48 48C49.3807 48 50.5 49.1193 50.5 50.5Z" stroke="#7E4B9D" stroke-width="5" stroke-linecap="round" stroke-linejoin="round"/>
</svg>
