<svg width="61" height="61" viewBox="0 0 61 61" fill="none" xmlns="http://www.w3.org/2000/svg">
<g clip-path="url(#clip0_4_2)">
<path d="M59.9506 57.2787L41.7312 38.9488C45.1269 34.8819 47.1725 29.6487 47.1725 23.9356C47.1725 10.9906 36.68 0.498125 23.735 0.498125C10.79 0.498125 0.297501 10.9906 0.297501 23.9356C0.297501 36.8806 10.79 47.3731 23.735 47.3731C29.615 47.3731 34.9888 45.2019 39.1044 41.6225L57.2975 59.93C58.0287 60.6612 59.2175 60.6612 59.9506 59.93C60.6838 59.1987 60.6819 58.0137 59.9506 57.2787ZM23.7369 43.655C12.8469 43.655 4.0175 34.8256 4.0175 23.9356C4.0175 13.0456 12.845 4.21625 23.7369 4.21625C34.6269 4.21625 43.4544 13.0438 43.4544 23.9356C43.4544 34.8275 34.6269 43.655 23.7369 43.655Z" fill="black"/>
</g>
<defs>
<clipPath id="clip0_4_2">
<rect width="60" height="60" fill="white" transform="translate(0.5 0.5)"/>
</clipPath>
</defs>
</svg>
