<svg width="60" height="61" viewBox="0 0 60 61" fill="none" xmlns="http://www.w3.org/2000/svg">
<path d="M30 30.5H30.025M30 15.5H30.025M30 45.5H30.025M32.5 30.5C32.5 31.8807 31.3807 33 30 33C28.6193 33 27.5 31.8807 27.5 30.5C27.5 29.1193 28.6193 28 30 28C31.3807 28 32.5 29.1193 32.5 30.5ZM32.5 45.5C32.5 46.8807 31.3807 48 30 48C28.6193 48 27.5 46.8807 27.5 45.5C27.5 44.1193 28.6193 43 30 43C31.3807 43 32.5 44.1193 32.5 45.5ZM32.5 15.5C32.5 16.8807 31.3807 18 30 18C28.6193 18 27.5 16.8807 27.5 15.5C27.5 14.1193 28.6193 13 30 13C31.3807 13 32.5 14.1193 32.5 15.5Z" stroke="black" stroke-width="5" stroke-linecap="round" stroke-linejoin="round"/>
</svg>
